<?xml version="1.0" standalone="no"?>
<!DOCTYPE svg PUBLIC "-//W3C//DTD SVG 20010904//EN"
 "http://www.w3.org/TR/2001/REC-SVG-20010904/DTD/svg10.dtd">
<svg version="1.0" xmlns="http://www.w3.org/2000/svg"
 width="166.000000pt" height="201.000000pt" viewBox="0 0 166.000000 201.000000"
 preserveAspectRatio="xMidYMid meet">

<g transform="translate(0.000000,201.000000) scale(0.100000,-0.100000)"
fill="#ffffff" stroke="none">
<path d="M190 1788 c-12 -8 -11 -9 5 -4 17 5 18 4 5 -6 -8 -7 -17 -22 -19 -33
-8 -47 -8 -324 0 -370 12 -61 61 -218 70 -225 4 -3 10 -16 14 -30 9 -37 42
-73 57 -64 8 5 7 1 -2 -11 -12 -15 -12 -17 -1 -10 11 6 13 4 8 -7 -3 -10 4
-24 19 -37 13 -11 24 -26 24 -32 0 -5 4 -8 9 -5 5 3 21 -12 36 -34 15 -22 31
-40 34 -40 4 0 7 -11 7 -25 0 -13 -2 -22 -4 -20 -8 8 -43 -16 -37 -26 4 -5 3
-8 -2 -7 -15 5 -56 -40 -48 -53 5 -8 4 -10 -3 -5 -9 5 -41 -38 -47 -64 -1 -3
-7 -17 -13 -31 -15 -37 -13 -188 4 -223 8 -16 14 -34 14 -40 0 -17 71 -96 81
-90 5 3 8 2 7 -3 -10 -30 122 -104 230 -128 109 -25 322 -14 362 19 8 6 32 20
53 29 25 11 37 23 34 31 -3 8 1 13 11 12 9 0 16 5 14 12 -1 8 2 11 7 8 13 -9
72 67 93 118 26 68 21 215 -11 280 -30 60 -79 118 -94 109 -5 -3 -7 -1 -3 5 3
6 -6 20 -20 31 -15 12 -23 21 -18 21 5 0 1 6 -8 14 -15 11 -15 16 -3 52 8 21
14 35 15 29 0 -5 7 1 15 15 8 14 12 34 9 45 -4 15 -3 17 4 6 8 -11 13 -8 26
16 8 17 12 34 8 38 -4 5 -2 5 4 2 24 -14 22 23 -1 52 -14 16 -25 35 -25 42 0
9 -3 10 -11 2 -8 -8 -8 -20 2 -46 11 -31 10 -38 -10 -71 -13 -20 -20 -36 -16
-36 3 0 -4 -15 -17 -32 -12 -18 -21 -39 -20 -46 2 -8 -1 -11 -6 -8 -5 3 -17
-9 -26 -28 -20 -42 -20 -51 -2 -34 8 7 11 18 8 23 -2 6 1 4 9 -3 12 -11 12
-14 0 -21 -9 -6 -10 -11 -2 -15 6 -4 17 -4 24 0 8 5 8 2 -2 -9 -9 -11 -10 -17
-2 -17 16 0 89 -69 96 -91 4 -11 11 -16 17 -13 6 4 8 3 5 -3 -3 -5 5 -31 18
-58 19 -36 25 -64 25 -110 0 -58 -21 -146 -42 -172 -5 -7 -6 -18 -2 -24 4 -7
3 -9 -3 -6 -10 7 -28 -20 -25 -36 1 -4 -1 -6 -6 -5 -7 3 -22 -8 -62 -44 -10
-9 -21 -14 -24 -11 -3 3 -8 -2 -12 -11 -3 -9 -10 -13 -15 -10 -6 3 -17 0 -26
-8 -9 -7 -28 -14 -42 -15 -14 -1 -64 -4 -111 -8 -76 -6 -115 -2 -240 21 -19 3
-43 13 -52 21 -9 8 -22 12 -29 7 -8 -4 -10 -3 -5 4 4 7 2 12 -3 12 -18 0 -24
4 -60 37 -19 17 -39 29 -43 27 -5 -3 -8 -2 -7 3 4 16 -13 43 -24 36 -5 -3 -7
-2 -4 4 4 6 -3 30 -15 54 -15 30 -23 69 -26 124 -3 71 -1 86 22 129 14 27 23
53 20 58 -3 5 -1 7 5 6 6 -2 17 8 24 22 6 13 31 38 54 56 32 25 39 34 30 44
-9 10 -9 11 1 6 22 -13 37 6 17 21 -11 7 -16 13 -12 13 3 0 -17 21 -44 47 -72
67 -189 256 -189 304 0 6 -6 25 -14 42 -8 18 -19 70 -25 116 -12 89 -15 311
-5 347 l6 21 25 -23 c14 -13 31 -20 40 -17 10 4 14 2 10 -4 -6 -10 12 -28 51
-50 22 -13 36 -5 24 13 -15 20 -90 73 -96 67 -3 -3 -6 -2 -6 3 0 18 -55 43
-70 32z"/>
<path d="M365 1659 c-4 -6 -5 -11 -4 -12 17 -10 106 -97 103 -100 -3 -3 9 -16
25 -30 17 -14 33 -37 37 -51 3 -15 9 -24 12 -21 3 3 12 -9 19 -26 9 -23 17
-29 29 -25 13 5 14 4 5 -7 -8 -11 -7 -22 6 -48 10 -19 18 -41 20 -49 1 -8 6
-23 12 -35 14 -28 51 -208 51 -248 0 -18 6 -39 13 -46 10 -11 10 -13 0 -7 -7
4 -13 3 -13 -2 0 -16 26 -21 107 -21 43 0 91 -4 106 -10 l27 -11 2 108 c0 59
1 113 1 119 -1 7 3 11 7 8 9 -6 10 -4 35 90 9 33 20 69 25 80 5 11 17 40 27
63 16 40 20 43 48 39 16 -3 51 -15 77 -27 26 -11 50 -20 54 -20 3 1 16 -10 29
-24 13 -14 27 -22 30 -16 5 9 -38 55 -53 55 -4 1 -17 6 -30 13 -12 7 -27 10
-32 7 -6 -3 -7 1 -4 9 4 11 0 16 -13 16 -10 0 -23 4 -29 9 -5 5 -25 11 -46 14
-35 4 -37 3 -43 -30 -3 -18 -14 -48 -25 -66 -10 -18 -24 -54 -31 -82 -7 -27
-16 -53 -21 -56 -5 -3 -10 -20 -12 -37 -3 -17 -7 -36 -11 -42 -4 -6 -9 -45
-12 -88 -2 -42 -6 -79 -8 -81 -8 -7 -149 -1 -158 8 -5 5 -13 42 -18 82 -5 41
-13 75 -18 77 -6 2 -7 10 -4 17 11 31 -91 280 -123 298 -8 4 -14 15 -14 23 0
8 -4 12 -10 9 -5 -3 -7 0 -4 8 3 9 -15 35 -45 66 -27 28 -47 51 -43 51 3 0 -3
6 -13 14 -11 8 -24 12 -30 9 -5 -4 -7 -3 -3 2 8 9 -9 35 -23 35 -4 0 -11 -5
-14 -11z"/>
<path d="M1265 1331 c3 -18 98 -121 110 -121 3 0 5 7 5 16 0 24 -51 73 -68 66
-9 -3 -13 -1 -9 4 7 11 0 23 -25 42 -15 12 -17 11 -13 -7z"/>
<path d="M1380 1205 c-7 -9 -8 -15 -2 -15 5 0 27 -36 48 -80 22 -43 42 -79 47
-80 4 0 7 14 7 31 0 17 -4 28 -10 24 -6 -3 -10 4 -10 17 0 25 -22 62 -52 89
-10 9 -15 19 -11 23 3 3 4 6 1 6 -3 0 -11 -7 -18 -15z"/>
<path d="M1171 1033 c12 -31 44 -65 53 -56 3 4 6 0 6 -8 0 -34 162 -127 250
-144 13 -2 26 -9 30 -15 4 -6 15 -8 24 -4 13 5 16 14 12 33 -3 14 -11 51 -17
81 -6 30 -15 59 -20 64 -5 6 -9 21 -9 34 0 13 -4 20 -10 17 -13 -8 -13 -40 -1
-63 9 -17 31 -101 31 -120 0 -6 -15 -10 -34 -9 -19 0 -33 4 -30 8 5 8 -21 19
-47 19 -10 0 -19 4 -19 9 0 5 -13 14 -30 21 -16 7 -30 16 -30 21 0 5 -7 9 -15
9 -8 0 -15 5 -15 11 0 6 -9 9 -20 6 -11 -3 -23 -1 -26 4 -3 5 -2 9 3 8 4 -1
12 -1 17 0 13 2 -40 41 -55 41 -7 0 -10 3 -6 6 6 7 -32 54 -45 54 -4 0 -3 -12
3 -27z"/>
</g>
</svg>
